<mxfile host="app.diagrams.net" modified="2023-08-15T09:06:57.611Z" agent="Mozilla/5.0 (Windows NT 10.0; Win64; x64) AppleWebKit/537.36 (KHTML, like Gecko) Chrome/115.0.0.0 Safari/537.36" etag="h-0B8-S-s0faaZWb6MLe" version="21.6.8" type="device">
  <diagram name="Page-1" id="gw3qiQmX2RtzdbNZ-1mn">
    <mxGraphModel dx="1034" dy="507" grid="1" gridSize="10" guides="1" tooltips="1" connect="1" arrows="1" fold="1" page="1" pageScale="1" pageWidth="850" pageHeight="1100" math="0" shadow="0">
      <root>
        <mxCell id="0" />
        <mxCell id="1" parent="0" />
        <mxCell id="Jq9nqgD_xF1iekALDfY9-1" value="ship" style="swimlane;fontStyle=0;childLayout=stackLayout;horizontal=1;startSize=26;fillColor=none;horizontalStack=0;resizeParent=1;resizeParentMax=0;resizeLast=0;collapsible=1;marginBottom=0;whiteSpace=wrap;html=1;" vertex="1" parent="1">
          <mxGeometry x="300" y="20" width="140" height="104" as="geometry" />
        </mxCell>
        <mxCell id="Jq9nqgD_xF1iekALDfY9-2" value="+ shipName: string" style="text;strokeColor=none;fillColor=none;align=left;verticalAlign=top;spacingLeft=4;spacingRight=4;overflow=hidden;rotatable=0;points=[[0,0.5],[1,0.5]];portConstraint=eastwest;whiteSpace=wrap;html=1;" vertex="1" parent="Jq9nqgD_xF1iekALDfY9-1">
          <mxGeometry y="26" width="140" height="26" as="geometry" />
        </mxCell>
        <mxCell id="Jq9nqgD_xF1iekALDfY9-3" value="+ shipId: int" style="text;strokeColor=none;fillColor=none;align=left;verticalAlign=top;spacingLeft=4;spacingRight=4;overflow=hidden;rotatable=0;points=[[0,0.5],[1,0.5]];portConstraint=eastwest;whiteSpace=wrap;html=1;" vertex="1" parent="Jq9nqgD_xF1iekALDfY9-1">
          <mxGeometry y="52" width="140" height="26" as="geometry" />
        </mxCell>
        <mxCell id="Jq9nqgD_xF1iekALDfY9-4" value="# clone(): ship*&lt;br&gt;" style="text;strokeColor=none;fillColor=none;align=left;verticalAlign=top;spacingLeft=4;spacingRight=4;overflow=hidden;rotatable=0;points=[[0,0.5],[1,0.5]];portConstraint=eastwest;whiteSpace=wrap;html=1;" vertex="1" parent="Jq9nqgD_xF1iekALDfY9-1">
          <mxGeometry y="78" width="140" height="26" as="geometry" />
        </mxCell>
        <mxCell id="Jq9nqgD_xF1iekALDfY9-5" value="shipMemento" style="swimlane;fontStyle=0;childLayout=stackLayout;horizontal=1;startSize=26;fillColor=none;horizontalStack=0;resizeParent=1;resizeParentMax=0;resizeLast=0;collapsible=1;marginBottom=0;whiteSpace=wrap;html=1;" vertex="1" parent="1">
          <mxGeometry x="300" y="200" width="140" height="210" as="geometry" />
        </mxCell>
        <mxCell id="Jq9nqgD_xF1iekALDfY9-8" value="- shipName: string&lt;br&gt;+ shipId: int&lt;br&gt;- items: string*&lt;br&gt;- currentLoad: int&lt;br&gt;- capacity: int&lt;br&gt;+ version: int&lt;br&gt;+shipMemento(&lt;br&gt;string shipName,&lt;br&gt;int shipId,&lt;br&gt;int capacity,&lt;br&gt;int currentLoad,&lt;br&gt;string* items);&amp;nbsp;" style="text;strokeColor=none;fillColor=none;align=left;verticalAlign=top;spacingLeft=4;spacingRight=4;overflow=hidden;rotatable=0;points=[[0,0.5],[1,0.5]];portConstraint=eastwest;whiteSpace=wrap;html=1;" vertex="1" parent="Jq9nqgD_xF1iekALDfY9-5">
          <mxGeometry y="26" width="140" height="184" as="geometry" />
        </mxCell>
        <mxCell id="Jq9nqgD_xF1iekALDfY9-18" value="cargoShip" style="swimlane;fontStyle=0;childLayout=stackLayout;horizontal=1;startSize=26;fillColor=none;horizontalStack=0;resizeParent=1;resizeParentMax=0;resizeLast=0;collapsible=1;marginBottom=0;whiteSpace=wrap;html=1;" vertex="1" parent="1">
          <mxGeometry x="530" y="220" width="140" height="170" as="geometry" />
        </mxCell>
        <mxCell id="Jq9nqgD_xF1iekALDfY9-19" value="+ capacity: int&lt;br&gt;+ items: string*&lt;br&gt;+ currentLoad: int&lt;br&gt;+ toString(): int&lt;br&gt;+ save(int saveId): shipMemento&lt;br&gt;+ restore(shipMemento restorePoint): void&lt;br&gt;+ clone(): ship*" style="text;strokeColor=none;fillColor=none;align=left;verticalAlign=top;spacingLeft=4;spacingRight=4;overflow=hidden;rotatable=0;points=[[0,0.5],[1,0.5]];portConstraint=eastwest;whiteSpace=wrap;html=1;" vertex="1" parent="Jq9nqgD_xF1iekALDfY9-18">
          <mxGeometry y="26" width="140" height="144" as="geometry" />
        </mxCell>
        <mxCell id="Jq9nqgD_xF1iekALDfY9-22" value="militaryShip" style="swimlane;fontStyle=0;childLayout=stackLayout;horizontal=1;startSize=26;fillColor=none;horizontalStack=0;resizeParent=1;resizeParentMax=0;resizeLast=0;collapsible=1;marginBottom=0;whiteSpace=wrap;html=1;" vertex="1" parent="1">
          <mxGeometry x="60" y="220" width="140" height="170" as="geometry" />
        </mxCell>
        <mxCell id="Jq9nqgD_xF1iekALDfY9-23" value="+ capacity: int&lt;br&gt;+ items: string*&lt;br&gt;+ currentLoad: int&lt;br&gt;+ toString(): int&lt;br&gt;+ save(int saveId): shipMemento&lt;br&gt;+ restore(shipMemento restorePoint): void&lt;br&gt;+ clone(): ship*" style="text;strokeColor=none;fillColor=none;align=left;verticalAlign=top;spacingLeft=4;spacingRight=4;overflow=hidden;rotatable=0;points=[[0,0.5],[1,0.5]];portConstraint=eastwest;whiteSpace=wrap;html=1;" vertex="1" parent="Jq9nqgD_xF1iekALDfY9-22">
          <mxGeometry y="26" width="140" height="144" as="geometry" />
        </mxCell>
        <mxCell id="Jq9nqgD_xF1iekALDfY9-24" value="" style="endArrow=block;dashed=1;endFill=0;endSize=12;html=1;rounded=0;exitX=0;exitY=0.5;exitDx=0;exitDy=0;entryX=1;entryY=0.5;entryDx=0;entryDy=0;" edge="1" parent="1" source="Jq9nqgD_xF1iekALDfY9-19" target="Jq9nqgD_xF1iekALDfY9-8">
          <mxGeometry width="160" relative="1" as="geometry">
            <mxPoint x="450" y="270" as="sourcePoint" />
            <mxPoint x="610" y="270" as="targetPoint" />
          </mxGeometry>
        </mxCell>
        <mxCell id="Jq9nqgD_xF1iekALDfY9-25" value="" style="endArrow=block;dashed=1;endFill=0;endSize=12;html=1;rounded=0;exitX=1;exitY=0.5;exitDx=0;exitDy=0;entryX=0;entryY=0.5;entryDx=0;entryDy=0;" edge="1" parent="1" source="Jq9nqgD_xF1iekALDfY9-23" target="Jq9nqgD_xF1iekALDfY9-8">
          <mxGeometry width="160" relative="1" as="geometry">
            <mxPoint x="540" y="328" as="sourcePoint" />
            <mxPoint x="450" y="328" as="targetPoint" />
          </mxGeometry>
        </mxCell>
        <mxCell id="Jq9nqgD_xF1iekALDfY9-26" value="" style="endArrow=open;endFill=1;endSize=12;html=1;rounded=0;exitX=0.5;exitY=0;exitDx=0;exitDy=0;entryX=0;entryY=0.5;entryDx=0;entryDy=0;" edge="1" parent="1" source="Jq9nqgD_xF1iekALDfY9-22" target="Jq9nqgD_xF1iekALDfY9-4">
          <mxGeometry width="160" relative="1" as="geometry">
            <mxPoint x="450" y="270" as="sourcePoint" />
            <mxPoint x="610" y="270" as="targetPoint" />
          </mxGeometry>
        </mxCell>
        <mxCell id="Jq9nqgD_xF1iekALDfY9-27" value="" style="endArrow=open;endFill=1;endSize=12;html=1;rounded=0;exitX=0.5;exitY=0;exitDx=0;exitDy=0;entryX=1;entryY=0.5;entryDx=0;entryDy=0;" edge="1" parent="1" source="Jq9nqgD_xF1iekALDfY9-18" target="Jq9nqgD_xF1iekALDfY9-4">
          <mxGeometry width="160" relative="1" as="geometry">
            <mxPoint x="140" y="230" as="sourcePoint" />
            <mxPoint x="310" y="121" as="targetPoint" />
          </mxGeometry>
        </mxCell>
      </root>
    </mxGraphModel>
  </diagram>
</mxfile>
